<svg xmlns="http://www.w3.org/2000/svg" xmlns:xlink="http://www.w3.org/1999/xlink" xmlns:lucid="lucid" width="1122" height="362"><g transform="translate(-199 -139)" lucid:page-tab-id="0_0"><path d="M820 166a6 6 0 0 1 6-6h268a6 6 0 0 1 6 6v128a6 6 0 0 1-6 6H826a6 6 0 0 1-6-6z" stroke="#282c33" stroke-width="2" fill="#fff"/><use xlink:href="#a" transform="matrix(1,0,0,1,832.0000000000001,172) translate(65.00000000000001 51.777777777777786)"/><use xlink:href="#b" transform="matrix(1,0,0,1,832.0000000000001,172) translate(103.84567901234568 51.777777777777786)"/><use xlink:href="#c" transform="matrix(1,0,0,1,832.0000000000001,172) translate(140.09876543209876 51.777777777777786)"/><use xlink:href="#d" transform="matrix(1,0,0,1,832.0000000000001,172) translate(-10.141975308641918 70.44444444444444)"/><path d="M220 266a6 6 0 0 1 6-6h168a6 6 0 0 1 6 6v108a6 6 0 0 1-6 6H226a6 6 0 0 1-6-6z" stroke="#282c33" stroke-width="2" fill="#fff"/><use xlink:href="#e" transform="matrix(1,0,0,1,232,272) translate(11.262345679012356 42.44444444444444)"/><use xlink:href="#f" transform="matrix(1,0,0,1,232,272) translate(45.48456790123457 42.44444444444444)"/><use xlink:href="#g" transform="matrix(1,0,0,1,232,272) translate(6.4012345679012554 61.11111111111111)"/><path d="M820 346a6 6 0 0 1 6-6h268a6 6 0 0 1 6 6v128a6 6 0 0 1-6 6H826a6 6 0 0 1-6-6z" stroke="#282c33" stroke-width="2" fill="#fff"/><use xlink:href="#h" transform="matrix(1,0,0,1,832.0000000000001,352.00000000000006) translate(61.97530864197532 51.77777777777778)"/><use xlink:href="#i" transform="matrix(1,0,0,1,832.0000000000001,352.00000000000006) translate(100.82098765432099 51.77777777777778)"/><use xlink:href="#j" transform="matrix(1,0,0,1,832.0000000000001,352.00000000000006) translate(122.3395061728395 51.77777777777778)"/><use xlink:href="#k" transform="matrix(1,0,0,1,832.0000000000001,352.00000000000006) translate(-2.3641975308641463 70.44444444444444)"/><path d="M480 166a6 6 0 0 1 6-6h268a6 6 0 0 1 6 6v128a6 6 0 0 1-6 6H486a6 6 0 0 1-6-6zm28-6v140m-28-112h280" stroke="#282c33" stroke-width="2" fill="#fff"/><use xlink:href="#l" transform="matrix(1,0,0,1,513,193) translate(48.580246913580254 44.31944444444444)"/><use xlink:href="#m" transform="matrix(1,0,0,1,513,193) translate(77.83333333333334 44.31944444444444)"/><use xlink:href="#n" transform="matrix(1,0,0,1,513,193) translate(109.72222222222221 44.31944444444444)"/><use xlink:href="#o" transform="matrix(1,0,0,1,513,193) translate(142.5185185185185 44.31944444444444)"/><use xlink:href="#p" transform="matrix(1,0,0,1,513,193) translate(2.7561728395062204 62.98611111111111)"/><path d="M480 346a6 6 0 0 1 6-6h268a6 6 0 0 1 6 6v128a6 6 0 0 1-6 6H486a6 6 0 0 1-6-6zm28-6v140m-28-112h280" stroke="#282c33" stroke-width="2" fill="#fff"/><use xlink:href="#q" transform="matrix(1,0,0,1,513,373) translate(44.23765432098767 44.31944444444444)"/><use xlink:href="#m" transform="matrix(1,0,0,1,513,373) translate(74.39814814814815 44.31944444444444)"/><use xlink:href="#r" transform="matrix(1,0,0,1,513,373) translate(106.28703703703704 44.31944444444444)"/><use xlink:href="#j" transform="matrix(1,0,0,1,513,373) translate(126.07716049382715 44.31944444444444)"/><use xlink:href="#s" transform="matrix(1,0,0,1,513,373) translate(10.533950617283992 62.98611111111111)"/><path d="M402 320h32a6 6 0 0 0 6-6v-76a6 6 0 0 1 6-6h14.5" stroke="#5e5e5e" stroke-width="2" fill="none"/><path d="M402.03 320.98H401v-1.96h1.03z" stroke="#5e5e5e" stroke-width=".05" fill="#5e5e5e"/><path d="M475.76 232l-14.26 4.64v-9.27z" stroke="#5e5e5e" stroke-width="2" fill="#5e5e5e"/><path d="M402 320h32a6 6 0 0 1 6 6v86.67a6 6 0 0 0 6 6h14.5" stroke="#5e5e5e" stroke-width="2" fill="none"/><path d="M402.03 320.98H401v-1.96h1.03z" stroke="#5e5e5e" stroke-width=".05" fill="#5e5e5e"/><path d="M475.76 418.67l-14.26 4.64v-9.26z" stroke="#5e5e5e" stroke-width="2" fill="#5e5e5e"/><path d="M762 230h38.5" stroke="#5e5e5e" stroke-width="2" fill="none"/><path d="M762.03 230.97H761v-1.94h1.03z" stroke="#5e5e5e" stroke-width=".05" fill="#5e5e5e"/><path d="M815.76 230l-14.26 4.63v-9.26z" stroke="#5e5e5e" stroke-width="2" fill="#5e5e5e"/><path d="M762 410h38.5" stroke="#5e5e5e" stroke-width="2" fill="none"/><path d="M762.03 410.98H761v-1.96h1.03z" stroke="#5e5e5e" stroke-width=".05" fill="#5e5e5e"/><path d="M815.76 410l-14.26 4.63v-9.26z" stroke="#5e5e5e" stroke-width="2" fill="#5e5e5e"/><path d="M1140 176a6 6 0 0 1 6-6h148a6 6 0 0 1 6 6v108a6 6 0 0 1-6 6h-148a6 6 0 0 1-6-6z" stroke="#282c33" stroke-width="2" fill="#fff"/><g><use xlink:href="#t" transform="matrix(1,0,0,1,1152,182) translate(40.83333333333334 28)"/><use xlink:href="#u" transform="matrix(1,0,0,1,1152,182) translate(10.861111111111114 52)"/><use xlink:href="#v" transform="matrix(1,0,0,1,1152,182) translate(17.000000000000014 76)"/><use xlink:href="#w" transform="matrix(1,0,0,1,1152,182) translate(64.72222222222223 76)"/></g><path d="M1102 230.67h18.5" stroke="#5e5e5e" stroke-width="2" fill="none"/><path d="M1102.03 231.64H1101v-1.95h1.03z" stroke="#5e5e5e" stroke-width=".05" fill="#5e5e5e"/><path d="M1135.76 230.67l-14.26 4.63v-9.27z" stroke="#5e5e5e" stroke-width="2" fill="#5e5e5e"/><defs><path fill="#282c33" d="M190 0L58-211 59 0H30v-248h39L202-35l-2-213h31V0h-41" id="x"/><path fill="#282c33" d="M30 0v-248h33v221h125V0H30" id="y"/><path fill="#282c33" d="M30-248c87 1 191-15 191 75 0 78-77 80-158 76V0H30v-248zm33 125c57 0 124 11 124-50 0-59-68-47-124-48v98" id="z"/><path fill="#282c33" d="M33-154v-36h34v36H33zM33 0v-36h34V0H33" id="A"/><g id="a"><use transform="matrix(0.04320987654320986,0,0,0.04320987654320986,0,0)" xlink:href="#x"/><use transform="matrix(0.04320987654320986,0,0,0.04320987654320986,11.191358024691354,0)" xlink:href="#y"/><use transform="matrix(0.04320987654320986,0,0,0.04320987654320986,19.83333333333333,0)" xlink:href="#z"/><use transform="matrix(0.04320987654320986,0,0,0.04320987654320986,30.2037037037037,0)" xlink:href="#A"/></g><path fill="#282c33" d="M140-251c81 0 123 46 123 126C263-46 219 4 140 4 59 4 17-45 17-125s42-126 123-126zm0 227c63 0 89-41 89-101s-29-99-89-99c-61 0-89 39-89 99S79-25 140-24" id="B"/><path fill="#282c33" d="M117-194c89-4 53 116 60 194h-32v-121c0-31-8-49-39-48C34-167 62-67 57 0H25l-1-190h30c1 10-1 24 2 32 11-22 29-35 61-36" id="C"/><path fill="#282c33" d="M24 0v-261h32V0H24" id="D"/><path fill="#282c33" d="M179-190L93 31C79 59 56 82 12 73V49c39 6 53-20 64-50L1-190h34L92-34l54-156h33" id="E"/><g id="b"><use transform="matrix(0.04320987654320986,0,0,0.04320987654320986,0,0)" xlink:href="#B"/><use transform="matrix(0.04320987654320986,0,0,0.04320987654320986,12.09876543209876,0)" xlink:href="#C"/><use transform="matrix(0.04320987654320986,0,0,0.04320987654320986,20.740740740740733,0)" xlink:href="#D"/><use transform="matrix(0.04320987654320986,0,0,0.04320987654320986,24.154320987654312,0)" xlink:href="#E"/></g><path fill="#282c33" d="M30 0v-248h187v28H63v79h144v27H63v87h162V0H30" id="F"/><path fill="#282c33" d="M177-190C167-65 218 103 67 71c-23-6-38-20-44-43l32-5c15 47 100 32 89-28v-30C133-14 115 1 83 1 29 1 15-40 15-95c0-56 16-97 71-98 29-1 48 16 59 35 1-10 0-23 2-32h30zM94-22c36 0 50-32 50-73 0-42-14-75-50-75-39 0-46 34-46 75s6 73 46 73" id="G"/><path fill="#282c33" d="M24-231v-30h32v30H24zM24 0v-190h32V0H24" id="H"/><path fill="#282c33" d="M135-143c-3-34-86-38-87 0 15 53 115 12 119 90S17 21 10-45l28-5c4 36 97 45 98 0-10-56-113-15-118-90-4-57 82-63 122-42 12 7 21 19 24 35" id="I"/><path fill="#282c33" d="M106-169C34-169 62-67 57 0H25v-261h32l-1 103c12-21 28-36 61-36 89 0 53 116 60 194h-32v-121c2-32-8-49-39-48" id="J"/><g id="c"><use transform="matrix(0.04320987654320986,0,0,0.04320987654320986,0,0)" xlink:href="#F"/><use transform="matrix(0.04320987654320986,0,0,0.04320987654320986,10.370370370370367,0)" xlink:href="#C"/><use transform="matrix(0.04320987654320986,0,0,0.04320987654320986,19.01234567901234,0)" xlink:href="#G"/><use transform="matrix(0.04320987654320986,0,0,0.04320987654320986,27.654320987654316,0)" xlink:href="#D"/><use transform="matrix(0.04320987654320986,0,0,0.04320987654320986,31.067901234567895,0)" xlink:href="#H"/><use transform="matrix(0.04320987654320986,0,0,0.04320987654320986,34.481481481481474,0)" xlink:href="#I"/><use transform="matrix(0.04320987654320986,0,0,0.04320987654320986,42.25925925925925,0)" xlink:href="#J"/></g><path fill="#282c33" d="M87 75C49 33 22-17 22-94c0-76 28-126 65-167h31c-38 41-64 92-64 168S80 34 118 75H87" id="K"/><path fill="#282c33" d="M-5 72V49h209v23H-5" id="L"/><path fill="#282c33" d="M240 0l2-218c-23 76-54 145-80 218h-23L58-218 59 0H30v-248h44l77 211c21-75 51-140 76-211h43V0h-30" id="M"/><path fill="#282c33" d="M100-194c62-1 85 37 85 99 1 63-27 99-86 99S16-35 15-95c0-66 28-99 85-99zM99-20c44 1 53-31 53-75 0-43-8-75-51-75s-53 32-53 75 10 74 51 75" id="N"/><path fill="#282c33" d="M85-194c31 0 48 13 60 33l-1-100h32l1 261h-30c-2-10 0-23-3-31C134-8 116 4 85 4 32 4 16-35 15-94c0-66 23-100 70-100zm9 24c-40 0-46 34-46 75 0 40 6 74 45 74 42 0 51-32 51-76 0-42-9-74-50-73" id="O"/><path fill="#282c33" d="M100-194c63 0 86 42 84 106H49c0 40 14 67 53 68 26 1 43-12 49-29l28 8c-11 28-37 45-77 45C44 4 14-33 15-96c1-61 26-98 85-98zm52 81c6-60-76-77-97-28-3 7-6 17-6 28h103" id="P"/><path fill="#282c33" d="M127-220V0H93v-220H8v-28h204v28h-85" id="Q"/><path fill="#282c33" d="M114-163C36-179 61-72 57 0H25l-1-190h30c1 12-1 29 2 39 6-27 23-49 58-41v29" id="R"/><path fill="#282c33" d="M141-36C126-15 110 5 73 4 37 3 15-17 15-53c-1-64 63-63 125-63 3-35-9-54-41-54-24 1-41 7-42 31l-33-3c5-37 33-52 76-52 45 0 72 20 72 64v82c-1 20 7 32 28 27v20c-31 9-61-2-59-35zM48-53c0 20 12 33 32 33 41-3 63-29 60-74-43 2-92-5-92 41" id="S"/><path fill="#282c33" d="M33 0v-38h34V0H33" id="T"/><path fill="#282c33" d="M115-194c55 1 70 41 70 98S169 2 115 4C84 4 66-9 55-30l1 105H24l-1-265h31l2 30c10-21 28-34 59-34zm-8 174c40 0 45-34 45-75s-6-73-45-74c-42 0-51 32-51 76 0 43 10 73 51 73" id="U"/><path fill="#282c33" d="M115-194c53 0 69 39 70 98 0 66-23 100-70 100C84 3 66-7 56-30L54 0H23l1-261h32v101c10-23 28-34 59-34zm-8 174c40 0 45-34 45-75 0-40-5-75-45-74-42 0-51 32-51 76 0 43 10 73 51 73" id="V"/><path fill="#282c33" d="M33-261c38 41 65 92 65 168S71 34 33 75H2C39 34 66-17 66-93S39-220 2-261h31" id="W"/><g id="d"><use transform="matrix(0.04320987654320986,0,0,0.04320987654320986,0,0)" xlink:href="#K"/><use transform="matrix(0.04320987654320986,0,0,0.04320987654320986,5.141975308641974,0)" xlink:href="#x"/><use transform="matrix(0.04320987654320986,0,0,0.04320987654320986,16.33333333333333,0)" xlink:href="#y"/><use transform="matrix(0.04320987654320986,0,0,0.04320987654320986,24.975308641975303,0)" xlink:href="#z"/><use transform="matrix(0.04320987654320986,0,0,0.04320987654320986,35.34567901234567,0)" xlink:href="#L"/><use transform="matrix(0.04320987654320986,0,0,0.04320987654320986,43.987654320987644,0)" xlink:href="#M"/><use transform="matrix(0.04320987654320986,0,0,0.04320987654320986,56.90740740740738,0)" xlink:href="#N"/><use transform="matrix(0.04320987654320986,0,0,0.04320987654320986,65.54938271604937,0)" xlink:href="#O"/><use transform="matrix(0.04320987654320986,0,0,0.04320987654320986,74.19135802469134,0)" xlink:href="#P"/><use transform="matrix(0.04320987654320986,0,0,0.04320987654320986,82.83333333333331,0)" xlink:href="#D"/><use transform="matrix(0.04320987654320986,0,0,0.04320987654320986,86.2469135802469,0)" xlink:href="#Q"/><use transform="matrix(0.04320987654320986,0,0,0.04320987654320986,95.14814814814814,0)" xlink:href="#R"/><use transform="matrix(0.04320987654320986,0,0,0.04320987654320986,100.2901234567901,0)" xlink:href="#S"/><use transform="matrix(0.04320987654320986,0,0,0.04320987654320986,108.93209876543207,0)" xlink:href="#H"/><use transform="matrix(0.04320987654320986,0,0,0.04320987654320986,112.34567901234566,0)" xlink:href="#C"/><use transform="matrix(0.04320987654320986,0,0,0.04320987654320986,120.98765432098763,0)" xlink:href="#H"/><use transform="matrix(0.04320987654320986,0,0,0.04320987654320986,124.40123456790121,0)" xlink:href="#C"/><use transform="matrix(0.04320987654320986,0,0,0.04320987654320986,133.0432098765432,0)" xlink:href="#G"/><use transform="matrix(0.04320987654320986,0,0,0.04320987654320986,141.68518518518516,0)" xlink:href="#L"/><use transform="matrix(0.04320987654320986,0,0,0.04320987654320986,150.32716049382714,0)" xlink:href="#N"/><use transform="matrix(0.04320987654320986,0,0,0.04320987654320986,158.9691358024691,0)" xlink:href="#C"/><use transform="matrix(0.04320987654320986,0,0,0.04320987654320986,167.6111111111111,0)" xlink:href="#D"/><use transform="matrix(0.04320987654320986,0,0,0.04320987654320986,171.02469135802465,0)" xlink:href="#E"/><use transform="matrix(0.04320987654320986,0,0,0.04320987654320986,178.80246913580245,0)" xlink:href="#F"/><use transform="matrix(0.04320987654320986,0,0,0.04320987654320986,189.1728395061728,0)" xlink:href="#C"/><use transform="matrix(0.04320987654320986,0,0,0.04320987654320986,197.81481481481478,0)" xlink:href="#G"/><use transform="matrix(0.04320987654320986,0,0,0.04320987654320986,206.45679012345676,0)" xlink:href="#D"/><use transform="matrix(0.04320987654320986,0,0,0.04320987654320986,209.87037037037032,0)" xlink:href="#H"/><use transform="matrix(0.04320987654320986,0,0,0.04320987654320986,213.28395061728392,0)" xlink:href="#I"/><use transform="matrix(0.04320987654320986,0,0,0.04320987654320986,221.06172839506164,0)" xlink:href="#J"/><use transform="matrix(0.04320987654320986,0,0,0.04320987654320986,229.70370370370367,0)" xlink:href="#T"/><use transform="matrix(0.04320987654320986,0,0,0.04320987654320986,234.02469135802465,0)" xlink:href="#H"/><use transform="matrix(0.04320987654320986,0,0,0.04320987654320986,237.4382716049382,0)" xlink:href="#U"/><use transform="matrix(0.04320987654320986,0,0,0.04320987654320986,246.08024691358014,0)" xlink:href="#E"/><use transform="matrix(0.04320987654320986,0,0,0.04320987654320986,253.85802469135794,0)" xlink:href="#C"/><use transform="matrix(0.04320987654320986,0,0,0.04320987654320986,262.4999999999999,0)" xlink:href="#V"/><use transform="matrix(0.04320987654320986,0,0,0.04320987654320986,271.14197530864186,0)" xlink:href="#W"/></g><g id="e"><use transform="matrix(0.04320987654320987,0,0,0.04320987654320987,0,0)" xlink:href="#x"/><use transform="matrix(0.04320987654320987,0,0,0.04320987654320987,11.191358024691356,0)" xlink:href="#y"/><use transform="matrix(0.04320987654320987,0,0,0.04320987654320987,19.83333333333333,0)" xlink:href="#z"/></g><path fill="#282c33" d="M96-169c-40 0-48 33-48 73s9 75 48 75c24 0 41-14 43-38l32 2c-6 37-31 61-74 61-59 0-76-41-82-99-10-93 101-131 147-64 4 7 5 14 7 22l-32 3c-4-21-16-35-41-35" id="X"/><g id="f"><use transform="matrix(0.04320987654320987,0,0,0.04320987654320987,0,0)" xlink:href="#z"/><use transform="matrix(0.04320987654320987,0,0,0.04320987654320987,10.370370370370368,0)" xlink:href="#R"/><use transform="matrix(0.04320987654320987,0,0,0.04320987654320987,15.512345679012343,0)" xlink:href="#P"/><use transform="matrix(0.04320987654320987,0,0,0.04320987654320987,24.154320987654316,0)" xlink:href="#U"/><use transform="matrix(0.04320987654320987,0,0,0.04320987654320987,32.79629629629629,0)" xlink:href="#R"/><use transform="matrix(0.04320987654320987,0,0,0.04320987654320987,37.938271604938265,0)" xlink:href="#N"/><use transform="matrix(0.04320987654320987,0,0,0.04320987654320987,46.58024691358024,0)" xlink:href="#X"/><use transform="matrix(0.04320987654320987,0,0,0.04320987654320987,54.358024691358025,0)" xlink:href="#P"/><use transform="matrix(0.04320987654320987,0,0,0.04320987654320987,62.99999999999999,0)" xlink:href="#I"/><use transform="matrix(0.04320987654320987,0,0,0.04320987654320987,70.77777777777777,0)" xlink:href="#I"/><use transform="matrix(0.04320987654320987,0,0,0.04320987654320987,78.55555555555554,0)" xlink:href="#H"/><use transform="matrix(0.04320987654320987,0,0,0.04320987654320987,81.96913580246913,0)" xlink:href="#C"/><use transform="matrix(0.04320987654320987,0,0,0.04320987654320987,90.61111111111109,0)" xlink:href="#G"/></g><g id="g"><use transform="matrix(0.04320987654320987,0,0,0.04320987654320987,0,0)" xlink:href="#K"/><use transform="matrix(0.04320987654320987,0,0,0.04320987654320987,5.141975308641975,0)" xlink:href="#x"/><use transform="matrix(0.04320987654320987,0,0,0.04320987654320987,16.33333333333333,0)" xlink:href="#y"/><use transform="matrix(0.04320987654320987,0,0,0.04320987654320987,24.975308641975303,0)" xlink:href="#z"/><use transform="matrix(0.04320987654320987,0,0,0.04320987654320987,35.34567901234567,0)" xlink:href="#L"/><use transform="matrix(0.04320987654320987,0,0,0.04320987654320987,43.987654320987644,0)" xlink:href="#U"/><use transform="matrix(0.04320987654320987,0,0,0.04320987654320987,52.62962962962962,0)" xlink:href="#R"/><use transform="matrix(0.04320987654320987,0,0,0.04320987654320987,57.771604938271594,0)" xlink:href="#P"/><use transform="matrix(0.04320987654320987,0,0,0.04320987654320987,66.41358024691357,0)" xlink:href="#U"/><use transform="matrix(0.04320987654320987,0,0,0.04320987654320987,75.05555555555554,0)" xlink:href="#R"/><use transform="matrix(0.04320987654320987,0,0,0.04320987654320987,80.19753086419752,0)" xlink:href="#N"/><use transform="matrix(0.04320987654320987,0,0,0.04320987654320987,88.83950617283949,0)" xlink:href="#X"/><use transform="matrix(0.04320987654320987,0,0,0.04320987654320987,96.61728395061726,0)" xlink:href="#T"/><use transform="matrix(0.04320987654320987,0,0,0.04320987654320987,100.93827160493825,0)" xlink:href="#H"/><use transform="matrix(0.04320987654320987,0,0,0.04320987654320987,104.35185185185183,0)" xlink:href="#U"/><use transform="matrix(0.04320987654320987,0,0,0.04320987654320987,112.99382716049381,0)" xlink:href="#E"/><use transform="matrix(0.04320987654320987,0,0,0.04320987654320987,120.77160493827158,0)" xlink:href="#C"/><use transform="matrix(0.04320987654320987,0,0,0.04320987654320987,129.41358024691354,0)" xlink:href="#V"/><use transform="matrix(0.04320987654320987,0,0,0.04320987654320987,138.05555555555551,0)" xlink:href="#W"/></g><g id="h"><use transform="matrix(0.04320987654320987,0,0,0.04320987654320987,0,0)" xlink:href="#x"/><use transform="matrix(0.04320987654320987,0,0,0.04320987654320987,11.191358024691356,0)" xlink:href="#y"/><use transform="matrix(0.04320987654320987,0,0,0.04320987654320987,19.83333333333333,0)" xlink:href="#z"/><use transform="matrix(0.04320987654320987,0,0,0.04320987654320987,30.2037037037037,0)" xlink:href="#A"/></g><path fill="#282c33" d="M205 0l-28-72H64L36 0H1l101-248h38L239 0h-34zm-38-99l-47-123c-12 45-31 82-46 123h93" id="Y"/><g id="i"><use transform="matrix(0.04320987654320987,0,0,0.04320987654320987,0,0)" xlink:href="#Y"/><use transform="matrix(0.04320987654320987,0,0,0.04320987654320987,10.370370370370368,0)" xlink:href="#D"/><use transform="matrix(0.04320987654320987,0,0,0.04320987654320987,13.783950617283947,0)" xlink:href="#D"/></g><path fill="#282c33" d="M84 4C-5 8 30-112 23-190h32v120c0 31 7 50 39 49 72-2 45-101 50-169h31l1 190h-30c-1-10 1-25-2-33-11 22-28 36-60 37" id="Z"/><g id="j"><use transform="matrix(0.04320987654320987,0,0,0.04320987654320987,0,0)" xlink:href="#D"/><use transform="matrix(0.04320987654320987,0,0,0.04320987654320987,3.4135802469135794,0)" xlink:href="#S"/><use transform="matrix(0.04320987654320987,0,0,0.04320987654320987,12.055555555555554,0)" xlink:href="#C"/><use transform="matrix(0.04320987654320987,0,0,0.04320987654320987,20.697530864197525,0)" xlink:href="#G"/><use transform="matrix(0.04320987654320987,0,0,0.04320987654320987,29.3395061728395,0)" xlink:href="#Z"/><use transform="matrix(0.04320987654320987,0,0,0.04320987654320987,37.981481481481474,0)" xlink:href="#S"/><use transform="matrix(0.04320987654320987,0,0,0.04320987654320987,46.62345679012345,0)" xlink:href="#G"/><use transform="matrix(0.04320987654320987,0,0,0.04320987654320987,55.26543209876542,0)" xlink:href="#P"/><use transform="matrix(0.04320987654320987,0,0,0.04320987654320987,63.90740740740739,0)" xlink:href="#I"/></g><path fill="#282c33" d="M101-234c-31-9-42 10-38 44h38v23H63V0H32v-167H5v-23h27c-7-52 17-82 69-68v24" id="aa"/><path fill="#282c33" d="M59-47c-2 24 18 29 38 22v24C64 9 27 4 27-40v-127H5v-23h24l9-43h21v43h35v23H59v120" id="ab"/><g id="k"><use transform="matrix(0.04320987654320987,0,0,0.04320987654320987,0,0)" xlink:href="#K"/><use transform="matrix(0.04320987654320987,0,0,0.04320987654320987,5.141975308641975,0)" xlink:href="#x"/><use transform="matrix(0.04320987654320987,0,0,0.04320987654320987,16.33333333333333,0)" xlink:href="#y"/><use transform="matrix(0.04320987654320987,0,0,0.04320987654320987,24.975308641975303,0)" xlink:href="#z"/><use transform="matrix(0.04320987654320987,0,0,0.04320987654320987,35.34567901234567,0)" xlink:href="#L"/><use transform="matrix(0.04320987654320987,0,0,0.04320987654320987,43.987654320987644,0)" xlink:href="#M"/><use transform="matrix(0.04320987654320987,0,0,0.04320987654320987,56.9074074074074,0)" xlink:href="#N"/><use transform="matrix(0.04320987654320987,0,0,0.04320987654320987,65.54938271604937,0)" xlink:href="#O"/><use transform="matrix(0.04320987654320987,0,0,0.04320987654320987,74.19135802469134,0)" xlink:href="#P"/><use transform="matrix(0.04320987654320987,0,0,0.04320987654320987,82.83333333333331,0)" xlink:href="#D"/><use transform="matrix(0.04320987654320987,0,0,0.04320987654320987,86.2469135802469,0)" xlink:href="#Q"/><use transform="matrix(0.04320987654320987,0,0,0.04320987654320987,95.14814814814812,0)" xlink:href="#R"/><use transform="matrix(0.04320987654320987,0,0,0.04320987654320987,100.2901234567901,0)" xlink:href="#S"/><use transform="matrix(0.04320987654320987,0,0,0.04320987654320987,108.93209876543207,0)" xlink:href="#H"/><use transform="matrix(0.04320987654320987,0,0,0.04320987654320987,112.34567901234566,0)" xlink:href="#C"/><use transform="matrix(0.04320987654320987,0,0,0.04320987654320987,120.98765432098763,0)" xlink:href="#H"/><use transform="matrix(0.04320987654320987,0,0,0.04320987654320987,124.40123456790121,0)" xlink:href="#C"/><use transform="matrix(0.04320987654320987,0,0,0.04320987654320987,133.0432098765432,0)" xlink:href="#G"/><use transform="matrix(0.04320987654320987,0,0,0.04320987654320987,141.68518518518516,0)" xlink:href="#L"/><use transform="matrix(0.04320987654320987,0,0,0.04320987654320987,150.32716049382714,0)" xlink:href="#Z"/><use transform="matrix(0.04320987654320987,0,0,0.04320987654320987,158.9691358024691,0)" xlink:href="#C"/><use transform="matrix(0.04320987654320987,0,0,0.04320987654320987,167.6111111111111,0)" xlink:href="#aa"/><use transform="matrix(0.04320987654320987,0,0,0.04320987654320987,171.93209876543207,0)" xlink:href="#H"/><use transform="matrix(0.04320987654320987,0,0,0.04320987654320987,175.34567901234564,0)" xlink:href="#D"/><use transform="matrix(0.04320987654320987,0,0,0.04320987654320987,178.7592592592592,0)" xlink:href="#ab"/><use transform="matrix(0.04320987654320987,0,0,0.04320987654320987,183.0802469135802,0)" xlink:href="#P"/><use transform="matrix(0.04320987654320987,0,0,0.04320987654320987,191.72222222222217,0)" xlink:href="#R"/><use transform="matrix(0.04320987654320987,0,0,0.04320987654320987,196.86419753086415,0)" xlink:href="#P"/><use transform="matrix(0.04320987654320987,0,0,0.04320987654320987,205.50617283950612,0)" xlink:href="#O"/><use transform="matrix(0.04320987654320987,0,0,0.04320987654320987,214.1481481481481,0)" xlink:href="#T"/><use transform="matrix(0.04320987654320987,0,0,0.04320987654320987,218.46913580246908,0)" xlink:href="#H"/><use transform="matrix(0.04320987654320987,0,0,0.04320987654320987,221.88271604938268,0)" xlink:href="#U"/><use transform="matrix(0.04320987654320987,0,0,0.04320987654320987,230.52469135802465,0)" xlink:href="#E"/><use transform="matrix(0.04320987654320987,0,0,0.04320987654320987,238.30246913580237,0)" xlink:href="#C"/><use transform="matrix(0.04320987654320987,0,0,0.04320987654320987,246.9444444444444,0)" xlink:href="#V"/><use transform="matrix(0.04320987654320987,0,0,0.04320987654320987,255.58641975308637,0)" xlink:href="#W"/></g><path fill="#282c33" d="M63-220v92h138v28H63V0H30v-248h175v28H63" id="ac"/><g id="l"><use transform="matrix(0.04320987654320987,0,0,0.04320987654320987,0,0)" xlink:href="#ac"/><use transform="matrix(0.04320987654320987,0,0,0.04320987654320987,9.46296296296296,0)" xlink:href="#H"/><use transform="matrix(0.04320987654320987,0,0,0.04320987654320987,12.876543209876537,0)" xlink:href="#D"/><use transform="matrix(0.04320987654320987,0,0,0.04320987654320987,16.29012345679012,0)" xlink:href="#P"/></g><path fill="#282c33" d="M206 0h-36l-40-164L89 0H53L-1-190h32L70-26l43-164h34l41 164 42-164h31" id="ad"/><g id="m"><use transform="matrix(0.04320987654320987,0,0,0.04320987654320987,0,0)" xlink:href="#ad"/><use transform="matrix(0.04320987654320987,0,0,0.04320987654320987,11.191358024691356,0)" xlink:href="#H"/><use transform="matrix(0.04320987654320987,0,0,0.04320987654320987,14.604938271604935,0)" xlink:href="#ab"/><use transform="matrix(0.04320987654320987,0,0,0.04320987654320987,18.92592592592592,0)" xlink:href="#J"/></g><g id="n"><use transform="matrix(0.04320987654320987,0,0,0.04320987654320987,0,0)" xlink:href="#N"/><use transform="matrix(0.04320987654320987,0,0,0.04320987654320987,8.641975308641973,0)" xlink:href="#C"/><use transform="matrix(0.04320987654320987,0,0,0.04320987654320987,17.283950617283946,0)" xlink:href="#D"/><use transform="matrix(0.04320987654320987,0,0,0.04320987654320987,20.697530864197525,0)" xlink:href="#E"/></g><g id="o"><use transform="matrix(0.04320987654320987,0,0,0.04320987654320987,0,0)" xlink:href="#F"/><use transform="matrix(0.04320987654320987,0,0,0.04320987654320987,10.370370370370368,0)" xlink:href="#C"/><use transform="matrix(0.04320987654320987,0,0,0.04320987654320987,19.01234567901234,0)" xlink:href="#G"/><use transform="matrix(0.04320987654320987,0,0,0.04320987654320987,27.654320987654316,0)" xlink:href="#D"/><use transform="matrix(0.04320987654320987,0,0,0.04320987654320987,31.067901234567895,0)" xlink:href="#H"/><use transform="matrix(0.04320987654320987,0,0,0.04320987654320987,34.481481481481474,0)" xlink:href="#I"/><use transform="matrix(0.04320987654320987,0,0,0.04320987654320987,42.25925925925925,0)" xlink:href="#J"/></g><path fill="#282c33" d="M108 0H70L1-190h34L89-25l56-165h34" id="ae"/><g id="p"><use transform="matrix(0.04320987654320987,0,0,0.04320987654320987,0,0)" xlink:href="#K"/><use transform="matrix(0.04320987654320987,0,0,0.04320987654320987,5.141975308641975,0)" xlink:href="#x"/><use transform="matrix(0.04320987654320987,0,0,0.04320987654320987,16.33333333333333,0)" xlink:href="#y"/><use transform="matrix(0.04320987654320987,0,0,0.04320987654320987,24.975308641975303,0)" xlink:href="#z"/><use transform="matrix(0.04320987654320987,0,0,0.04320987654320987,35.34567901234567,0)" xlink:href="#L"/><use transform="matrix(0.04320987654320987,0,0,0.04320987654320987,43.987654320987644,0)" xlink:href="#U"/><use transform="matrix(0.04320987654320987,0,0,0.04320987654320987,52.62962962962962,0)" xlink:href="#R"/><use transform="matrix(0.04320987654320987,0,0,0.04320987654320987,57.771604938271594,0)" xlink:href="#N"/><use transform="matrix(0.04320987654320987,0,0,0.04320987654320987,66.41358024691357,0)" xlink:href="#X"/><use transform="matrix(0.04320987654320987,0,0,0.04320987654320987,74.19135802469134,0)" xlink:href="#P"/><use transform="matrix(0.04320987654320987,0,0,0.04320987654320987,82.83333333333331,0)" xlink:href="#I"/><use transform="matrix(0.04320987654320987,0,0,0.04320987654320987,90.61111111111109,0)" xlink:href="#I"/><use transform="matrix(0.04320987654320987,0,0,0.04320987654320987,98.38888888888884,0)" xlink:href="#P"/><use transform="matrix(0.04320987654320987,0,0,0.04320987654320987,107.03086419753085,0)" xlink:href="#O"/><use transform="matrix(0.04320987654320987,0,0,0.04320987654320987,115.67283950617282,0)" xlink:href="#L"/><use transform="matrix(0.04320987654320987,0,0,0.04320987654320987,124.31481481481478,0)" xlink:href="#N"/><use transform="matrix(0.04320987654320987,0,0,0.04320987654320987,132.95679012345676,0)" xlink:href="#C"/><use transform="matrix(0.04320987654320987,0,0,0.04320987654320987,141.59876543209873,0)" xlink:href="#D"/><use transform="matrix(0.04320987654320987,0,0,0.04320987654320987,145.0123456790123,0)" xlink:href="#E"/><use transform="matrix(0.04320987654320987,0,0,0.04320987654320987,152.79012345679007,0)" xlink:href="#F"/><use transform="matrix(0.04320987654320987,0,0,0.04320987654320987,163.16049382716045,0)" xlink:href="#C"/><use transform="matrix(0.04320987654320987,0,0,0.04320987654320987,171.80246913580243,0)" xlink:href="#G"/><use transform="matrix(0.04320987654320987,0,0,0.04320987654320987,180.4444444444444,0)" xlink:href="#D"/><use transform="matrix(0.04320987654320987,0,0,0.04320987654320987,183.858024691358,0)" xlink:href="#H"/><use transform="matrix(0.04320987654320987,0,0,0.04320987654320987,187.27160493827154,0)" xlink:href="#I"/><use transform="matrix(0.04320987654320987,0,0,0.04320987654320987,195.0493827160493,0)" xlink:href="#J"/><use transform="matrix(0.04320987654320987,0,0,0.04320987654320987,203.69135802469128,0)" xlink:href="#T"/><use transform="matrix(0.04320987654320987,0,0,0.04320987654320987,208.01234567901227,0)" xlink:href="#X"/><use transform="matrix(0.04320987654320987,0,0,0.04320987654320987,215.79012345679004,0)" xlink:href="#I"/><use transform="matrix(0.04320987654320987,0,0,0.04320987654320987,223.5679012345678,0)" xlink:href="#ae"/><use transform="matrix(0.04320987654320987,0,0,0.04320987654320987,231.34567901234558,0)" xlink:href="#W"/></g><path fill="#282c33" d="M33 0v-248h34V0H33" id="af"/><g id="q"><use transform="matrix(0.04320987654320987,0,0,0.04320987654320987,0,0)" xlink:href="#ac"/><use transform="matrix(0.04320987654320987,0,0,0.04320987654320987,9.46296296296296,0)" xlink:href="#af"/><use transform="matrix(0.04320987654320987,0,0,0.04320987654320987,13.783950617283946,0)" xlink:href="#D"/><use transform="matrix(0.04320987654320987,0,0,0.04320987654320987,17.197530864197525,0)" xlink:href="#P"/></g><g id="r"><use transform="matrix(0.04320987654320987,0,0,0.04320987654320987,0,0)" xlink:href="#S"/><use transform="matrix(0.04320987654320987,0,0,0.04320987654320987,8.641975308641973,0)" xlink:href="#D"/><use transform="matrix(0.04320987654320987,0,0,0.04320987654320987,12.055555555555554,0)" xlink:href="#D"/></g><g id="s"><use transform="matrix(0.04320987654320987,0,0,0.04320987654320987,0,0)" xlink:href="#K"/><use transform="matrix(0.04320987654320987,0,0,0.04320987654320987,5.141975308641975,0)" xlink:href="#x"/><use transform="matrix(0.04320987654320987,0,0,0.04320987654320987,16.33333333333333,0)" xlink:href="#y"/><use transform="matrix(0.04320987654320987,0,0,0.04320987654320987,24.975308641975303,0)" xlink:href="#z"/><use transform="matrix(0.04320987654320987,0,0,0.04320987654320987,35.34567901234567,0)" xlink:href="#L"/><use transform="matrix(0.04320987654320987,0,0,0.04320987654320987,43.987654320987644,0)" xlink:href="#U"/><use transform="matrix(0.04320987654320987,0,0,0.04320987654320987,52.62962962962962,0)" xlink:href="#R"/><use transform="matrix(0.04320987654320987,0,0,0.04320987654320987,57.771604938271594,0)" xlink:href="#N"/><use transform="matrix(0.04320987654320987,0,0,0.04320987654320987,66.41358024691357,0)" xlink:href="#X"/><use transform="matrix(0.04320987654320987,0,0,0.04320987654320987,74.19135802469134,0)" xlink:href="#P"/><use transform="matrix(0.04320987654320987,0,0,0.04320987654320987,82.83333333333331,0)" xlink:href="#I"/><use transform="matrix(0.04320987654320987,0,0,0.04320987654320987,90.61111111111109,0)" xlink:href="#I"/><use transform="matrix(0.04320987654320987,0,0,0.04320987654320987,98.38888888888884,0)" xlink:href="#P"/><use transform="matrix(0.04320987654320987,0,0,0.04320987654320987,107.03086419753085,0)" xlink:href="#O"/><use transform="matrix(0.04320987654320987,0,0,0.04320987654320987,115.67283950617282,0)" xlink:href="#L"/><use transform="matrix(0.04320987654320987,0,0,0.04320987654320987,124.31481481481478,0)" xlink:href="#Z"/><use transform="matrix(0.04320987654320987,0,0,0.04320987654320987,132.95679012345676,0)" xlink:href="#C"/><use transform="matrix(0.04320987654320987,0,0,0.04320987654320987,141.59876543209873,0)" xlink:href="#aa"/><use transform="matrix(0.04320987654320987,0,0,0.04320987654320987,145.91975308641972,0)" xlink:href="#H"/><use transform="matrix(0.04320987654320987,0,0,0.04320987654320987,149.3333333333333,0)" xlink:href="#D"/><use transform="matrix(0.04320987654320987,0,0,0.04320987654320987,152.74691358024685,0)" xlink:href="#ab"/><use transform="matrix(0.04320987654320987,0,0,0.04320987654320987,157.06790123456784,0)" xlink:href="#P"/><use transform="matrix(0.04320987654320987,0,0,0.04320987654320987,165.70987654320982,0)" xlink:href="#R"/><use transform="matrix(0.04320987654320987,0,0,0.04320987654320987,170.8518518518518,0)" xlink:href="#P"/><use transform="matrix(0.04320987654320987,0,0,0.04320987654320987,179.49382716049374,0)" xlink:href="#O"/><use transform="matrix(0.04320987654320987,0,0,0.04320987654320987,188.1358024691357,0)" xlink:href="#T"/><use transform="matrix(0.04320987654320987,0,0,0.04320987654320987,192.4567901234567,0)" xlink:href="#X"/><use transform="matrix(0.04320987654320987,0,0,0.04320987654320987,200.2345679012345,0)" xlink:href="#I"/><use transform="matrix(0.04320987654320987,0,0,0.04320987654320987,208.01234567901227,0)" xlink:href="#ae"/><use transform="matrix(0.04320987654320987,0,0,0.04320987654320987,215.79012345679004,0)" xlink:href="#W"/></g><g id="t"><use transform="matrix(0.055555555555555546,0,0,0.055555555555555546,0,0)" xlink:href="#M"/><use transform="matrix(0.055555555555555546,0,0,0.055555555555555546,16.611111111111107,0)" xlink:href="#N"/><use transform="matrix(0.055555555555555546,0,0,0.055555555555555546,27.722222222222214,0)" xlink:href="#O"/><use transform="matrix(0.055555555555555546,0,0,0.055555555555555546,38.83333333333332,0)" xlink:href="#P"/><use transform="matrix(0.055555555555555546,0,0,0.055555555555555546,49.94444444444443,0)" xlink:href="#D"/></g><path fill="#282c33" d="M210-169c-67 3-38 105-44 169h-31v-121c0-29-5-50-35-48C34-165 62-65 56 0H25l-1-190h30c1 10-1 24 2 32 10-44 99-50 107 0 11-21 27-35 58-36 85-2 47 119 55 194h-31v-121c0-29-5-49-35-48" id="ag"/><g id="u"><use transform="matrix(0.055555555555555546,0,0,0.055555555555555546,0,0)" xlink:href="#z"/><use transform="matrix(0.055555555555555546,0,0,0.055555555555555546,13.33333333333333,0)" xlink:href="#P"/><use transform="matrix(0.055555555555555546,0,0,0.055555555555555546,24.44444444444444,0)" xlink:href="#R"/><use transform="matrix(0.055555555555555546,0,0,0.055555555555555546,31.05555555555555,0)" xlink:href="#aa"/><use transform="matrix(0.055555555555555546,0,0,0.055555555555555546,36.61111111111111,0)" xlink:href="#N"/><use transform="matrix(0.055555555555555546,0,0,0.055555555555555546,47.722222222222214,0)" xlink:href="#R"/><use transform="matrix(0.055555555555555546,0,0,0.055555555555555546,54.33333333333332,0)" xlink:href="#ag"/><use transform="matrix(0.055555555555555546,0,0,0.055555555555555546,70.94444444444443,0)" xlink:href="#S"/><use transform="matrix(0.055555555555555546,0,0,0.055555555555555546,82.05555555555554,0)" xlink:href="#C"/><use transform="matrix(0.055555555555555546,0,0,0.055555555555555546,93.16666666666666,0)" xlink:href="#X"/><use transform="matrix(0.055555555555555546,0,0,0.055555555555555546,103.16666666666666,0)" xlink:href="#P"/></g><path fill="#282c33" d="M185-189c-5-48-123-54-124 2 14 75 158 14 163 119 3 78-121 87-175 55-17-10-28-26-33-46l33-7c5 56 141 63 141-1 0-78-155-14-162-118-5-82 145-84 179-34 5 7 8 16 11 25" id="ah"/><g id="v"><use transform="matrix(0.055555555555555546,0,0,0.055555555555555546,0,0)" xlink:href="#K"/><use transform="matrix(0.055555555555555546,0,0,0.055555555555555546,6.61111111111111,0)" xlink:href="#ah"/><use transform="matrix(0.055555555555555546,0,0,0.055555555555555546,19.94444444444444,0)" xlink:href="#P"/><use transform="matrix(0.055555555555555546,0,0,0.055555555555555546,31.05555555555555,0)" xlink:href="#P"/></g><g id="w"><use transform="matrix(0.055555555555555546,0,0,0.055555555555555546,0,0)" xlink:href="#Q"/><use transform="matrix(0.055555555555555546,0,0,0.055555555555555546,9.944444444444443,0)" xlink:href="#S"/><use transform="matrix(0.055555555555555546,0,0,0.055555555555555546,21.05555555555555,0)" xlink:href="#V"/><use transform="matrix(0.055555555555555546,0,0,0.055555555555555546,32.16666666666666,0)" xlink:href="#D"/><use transform="matrix(0.055555555555555546,0,0,0.055555555555555546,36.55555555555554,0)" xlink:href="#P"/><use transform="matrix(0.055555555555555546,0,0,0.055555555555555546,47.66666666666665,0)" xlink:href="#W"/></g></defs></g></svg>